# This file uses centimeters as units for non-parametric coordinates.

mtllib PuertasIzquierdas.mtl
g default
v 8.303282 5.565139 -4.550626
v 8.303282 5.565139 -2.527008
v 8.303282 0.000190 -2.527008
v 8.303282 0.000190 -4.550626
v 8.151511 5.565139 -4.550624
v 8.151511 5.565139 -2.527006
v 8.151511 0.000190 -2.527006
v 8.151511 0.000190 -4.550624
v 8.303282 0.202552 -4.449445
v 8.303282 0.202552 -2.628189
v 8.303282 5.362777 -2.628189
v 8.303282 5.362777 -4.449445
v 8.151511 0.202552 -4.449445
v 8.151511 0.202552 -2.628187
v 8.151511 5.362777 -2.628187
v 8.151511 5.362777 -4.449445
vn -0.000001 1.000000 -0.000000
vn -0.000001 1.000000 -0.000000
vn -0.000001 1.000000 -0.000000
vn -0.000001 1.000000 -0.000000
vn -0.000000 0.000000 1.000000
vn -0.000000 0.000000 1.000000
vn -0.000000 0.000000 1.000000
vn -0.000000 0.000000 1.000000
vn 0.000000 -1.000000 0.000000
vn 0.000000 -1.000000 0.000000
vn 0.000000 -1.000000 0.000000
vn 0.000000 -1.000000 0.000000
vn 0.000000 0.000000 -1.000000
vn 0.000000 0.000000 -1.000000
vn 0.000000 0.000000 -1.000000
vn 0.000000 0.000000 -1.000000
vn -0.000000 1.000000 0.000000
vn -0.000000 1.000000 0.000000
vn -0.000000 1.000000 0.000000
vn -0.000000 1.000000 0.000000
vn 0.000000 0.000000 -1.000000
vn 0.000000 0.000000 -1.000000
vn 0.000000 0.000000 -1.000000
vn 0.000000 0.000000 -1.000000
vn 0.000000 -1.000000 0.000000
vn 0.000000 -1.000000 0.000000
vn 0.000000 -1.000000 0.000000
vn 0.000000 -1.000000 0.000000
vn -0.000000 0.000000 1.000000
vn -0.000000 0.000000 1.000000
vn -0.000000 0.000000 1.000000
vn -0.000000 0.000000 1.000000
vn 1.000000 0.000000 0.000000
vn 1.000000 0.000000 0.000000
vn 1.000000 0.000000 0.000000
vn 1.000000 0.000000 0.000000
vn 1.000000 0.000000 0.000000
vn 1.000000 0.000000 0.000000
vn 1.000000 0.000000 0.000000
vn 1.000000 0.000000 0.000000
vn 1.000000 0.000000 0.000000
vn 1.000000 0.000000 0.000000
vn 1.000000 0.000000 0.000000
vn 1.000000 0.000000 0.000000
vn 1.000000 0.000000 0.000000
vn 1.000000 0.000000 0.000000
vn 1.000000 0.000000 0.000000
vn 1.000000 0.000000 0.000000
vn -1.000000 0.000000 -0.000000
vn -1.000000 0.000000 -0.000000
vn -1.000000 0.000000 -0.000000
vn -1.000000 0.000000 -0.000000
vn -1.000000 0.000000 -0.000000
vn -1.000000 0.000000 -0.000000
vn -1.000000 0.000000 -0.000000
vn -1.000000 0.000000 -0.000000
vn -1.000000 0.000000 -0.000000
vn -1.000000 0.000000 -0.000000
vn -1.000000 0.000000 -0.000000
vn -1.000000 0.000000 -0.000000
vn -1.000000 0.000000 -0.000000
vn -1.000000 0.000000 -0.000000
vn -1.000000 0.000000 -0.000000
vn -1.000000 0.000000 -0.000000
s off
g Puerta2:Rectangle08 group16
usemtl Puerta2:lambert2SG
f 5//1 6//2 2//3 1//4
f 6//5 7//6 3//7 2//8
f 7//9 8//10 4//11 3//12
f 8//13 5//14 1//15 4//16
f 13//17 14//18 10//19 9//20
f 14//21 15//22 11//23 10//24
f 15//25 16//26 12//27 11//28
f 16//29 13//30 9//31 12//32
f 12//33 9//34 4//35 1//36
f 2//37 11//38 12//39 1//40
f 3//41 10//42 11//43 2//44
f 10//45 3//46 4//47 9//48
f 14//49 13//50 8//51 7//52
f 15//53 14//54 7//55 6//56
f 16//57 15//58 6//59 5//60
f 8//61 13//62 16//63 5//64
g default
v -9.957061 5.565139 -4.712820
v -9.957061 5.565139 -2.689202
v -9.957061 0.000190 -2.689202
v -9.957061 0.000190 -4.712820
v -9.805290 5.565139 -4.712820
v -9.805290 5.565139 -2.689202
v -9.805290 0.000190 -2.689202
v -9.805290 0.000190 -4.712820
v -9.957061 0.202552 -4.611639
v -9.957061 0.202552 -2.790383
v -9.957061 5.362777 -2.790383
v -9.957061 5.362777 -4.611639
v -9.805290 0.202552 -4.611639
v -9.805290 0.202552 -2.790383
v -9.805290 5.362777 -2.790383
v -9.805290 5.362777 -4.611639
vn 0.000000 1.000000 0.000000
vn 0.000000 1.000000 0.000000
vn 0.000000 1.000000 0.000000
vn 0.000000 1.000000 0.000000
vn -0.000000 0.000000 1.000000
vn -0.000000 0.000000 1.000000
vn -0.000000 0.000000 1.000000
vn -0.000000 0.000000 1.000000
vn 0.000000 -1.000000 0.000000
vn 0.000000 -1.000000 0.000000
vn 0.000000 -1.000000 0.000000
vn 0.000000 -1.000000 0.000000
vn 0.000000 0.000000 -1.000000
vn 0.000000 0.000000 -1.000000
vn 0.000000 0.000000 -1.000000
vn 0.000000 0.000000 -1.000000
vn 0.000000 1.000000 0.000000
vn 0.000000 1.000000 0.000000
vn 0.000000 1.000000 0.000000
vn 0.000000 1.000000 0.000000
vn 0.000000 0.000000 -1.000000
vn 0.000000 0.000000 -1.000000
vn 0.000000 0.000000 -1.000000
vn 0.000000 0.000000 -1.000000
vn 0.000000 -1.000000 0.000000
vn 0.000000 -1.000000 0.000000
vn 0.000000 -1.000000 0.000000
vn 0.000000 -1.000000 0.000000
vn 0.000000 0.000000 1.000000
vn 0.000000 0.000000 1.000000
vn 0.000000 0.000000 1.000000
vn 0.000000 0.000000 1.000000
vn -1.000000 0.000000 -0.000000
vn -1.000000 0.000000 -0.000000
vn -1.000000 0.000000 -0.000000
vn -1.000000 0.000000 -0.000000
vn -1.000000 0.000000 -0.000000
vn -1.000000 0.000000 -0.000000
vn -1.000000 0.000000 -0.000000
vn -1.000000 0.000000 -0.000000
vn -1.000000 0.000000 -0.000000
vn -1.000000 0.000000 -0.000000
vn -1.000000 0.000000 -0.000000
vn -1.000000 0.000000 -0.000000
vn -1.000000 0.000000 -0.000000
vn -1.000000 0.000000 -0.000000
vn -1.000000 0.000000 -0.000000
vn -1.000000 0.000000 -0.000000
vn 1.000000 -0.000000 0.000000
vn 1.000000 -0.000000 0.000000
vn 1.000000 -0.000000 0.000000
vn 1.000000 -0.000000 0.000000
vn 1.000000 -0.000000 0.000000
vn 1.000000 -0.000000 0.000000
vn 1.000000 -0.000000 0.000000
vn 1.000000 -0.000000 0.000000
vn 1.000000 -0.000000 0.000000
vn 1.000000 -0.000000 0.000000
vn 1.000000 -0.000000 0.000000
vn 1.000000 -0.000000 0.000000
vn 1.000000 -0.000000 0.000000
vn 1.000000 -0.000000 0.000000
vn 1.000000 -0.000000 0.000000
vn 1.000000 -0.000000 0.000000
s off
g Puerta:Rectangle04
usemtl Puerta:lambert2SG
f 17//65 18//66 22//67 21//68
f 18//69 19//70 23//71 22//72
f 19//73 20//74 24//75 23//76
f 20//77 17//78 21//79 24//80
f 25//81 26//82 30//83 29//84
f 26//85 27//86 31//87 30//88
f 27//89 28//90 32//91 31//92
f 28//93 25//94 29//95 32//96
f 17//97 20//98 25//99 28//100
f 17//101 28//102 27//103 18//104
f 18//105 27//106 26//107 19//108
f 25//109 20//110 19//111 26//112
f 23//113 24//114 29//115 30//116
f 22//117 23//118 30//119 31//120
f 21//121 22//122 31//123 32//124
f 21//125 32//126 29//127 24//128
g default
v -9.906470 5.362777 -4.611639
v -9.906470 5.362777 -2.790383
v -9.906470 0.202552 -2.790383
v -9.906470 0.202552 -4.611639
v -9.881175 5.362777 -4.611639
v -9.881175 5.362777 -2.790383
v -9.881175 0.202552 -2.790383
v -9.881175 0.202552 -4.611639
vn 0.000000 1.000000 0.000000
vn 0.000000 1.000000 0.000000
vn 0.000000 1.000000 0.000000
vn 0.000000 1.000000 0.000000
vn 0.000000 0.000000 1.000000
vn 0.000000 0.000000 1.000000
vn 0.000000 0.000000 1.000000
vn 0.000000 0.000000 1.000000
vn 0.000000 -1.000000 0.000000
vn 0.000000 -1.000000 0.000000
vn 0.000000 -1.000000 0.000000
vn 0.000000 -1.000000 0.000000
vn 0.000000 0.000000 -1.000000
vn 0.000000 0.000000 -1.000000
vn 0.000000 0.000000 -1.000000
vn 0.000000 0.000000 -1.000000
vn -1.000000 0.000000 -0.000000
vn -1.000000 0.000000 -0.000000
vn -1.000000 0.000000 -0.000000
vn -1.000000 0.000000 -0.000000
vn 1.000000 -0.000000 0.000000
vn 1.000000 -0.000000 0.000000
vn 1.000000 -0.000000 0.000000
vn 1.000000 -0.000000 0.000000
s off
g Puerta:Rectangle03
usemtl Puerta:lambert3SG
f 33//129 34//130 38//131 37//132
f 34//133 35//134 39//135 38//136
f 35//137 36//138 40//139 39//140
f 36//141 33//142 37//143 40//144
f 36//145 35//146 34//147 33//148
f 38//149 39//150 40//151 37//152
g default
v 8.286311 5.362777 -4.423976
v 8.286311 5.362777 -2.602720
v 8.286319 0.202552 -2.602720
v 8.286319 0.202552 -4.423976
v 8.261016 5.362777 -4.423976
v 8.261016 5.362777 -2.602720
v 8.261023 0.202552 -2.602720
v 8.261023 0.202552 -4.423976
vn 0.000000 1.000000 0.000000
vn 0.000000 1.000000 0.000000
vn 0.000000 1.000000 0.000000
vn 0.000000 1.000000 0.000000
vn -0.000000 0.000000 1.000000
vn -0.000000 0.000000 1.000000
vn -0.000000 0.000000 1.000000
vn -0.000000 0.000000 1.000000
vn 0.000000 -1.000000 0.000000
vn 0.000000 -1.000000 0.000000
vn 0.000000 -1.000000 0.000000
vn 0.000000 -1.000000 0.000000
vn 0.000000 0.000000 -1.000000
vn 0.000000 0.000000 -1.000000
vn 0.000000 0.000000 -1.000000
vn 0.000000 0.000000 -1.000000
vn 1.000000 0.000000 0.000000
vn 1.000000 0.000000 0.000000
vn 1.000000 0.000000 0.000000
vn 1.000000 0.000000 0.000000
vn -1.000000 0.000000 -0.000000
vn -1.000000 0.000000 -0.000000
vn -1.000000 0.000000 -0.000000
vn -1.000000 0.000000 -0.000000
s off
g group16 Puerta2:Rectangle09
usemtl Puerta2:lambert3SG
f 45//153 46//154 42//155 41//156
f 46//157 47//158 43//159 42//160
f 47//161 48//162 44//163 43//164
f 48//165 45//166 41//167 44//168
f 41//169 42//170 43//171 44//172
f 45//173 48//174 47//175 46//176
