# This file uses centimeters as units for non-parametric coordinates.

mtllib PuertaCentral.mtl
g default
v -2.174783 8.655330 9.675452
v 1.425217 8.655330 9.675452
v 1.425217 0.444028 9.675440
v -2.174783 0.444028 9.675440
v -2.174783 8.655330 9.715704
v 1.425217 8.655330 9.715704
v 1.425217 0.444028 9.715692
v -2.174783 0.444028 9.715692
vn 0.000000 1.000000 0.000000
vn 0.000000 1.000000 0.000000
vn 0.000000 1.000000 0.000000
vn 0.000000 1.000000 0.000000
vn 1.000000 0.000000 0.000000
vn 1.000000 0.000000 0.000000
vn 1.000000 0.000000 0.000000
vn 1.000000 0.000000 0.000000
vn 0.000000 -1.000000 0.000000
vn 0.000000 -1.000000 0.000000
vn 0.000000 -1.000000 0.000000
vn 0.000000 -1.000000 0.000000
vn -1.000000 0.000000 0.000000
vn -1.000000 0.000000 0.000000
vn -1.000000 0.000000 0.000000
vn -1.000000 0.000000 0.000000
vn 0.000000 0.000000 -1.000000
vn 0.000000 0.000000 -1.000000
vn 0.000000 0.000000 -1.000000
vn 0.000000 0.000000 -1.000000
vn 0.000000 -0.000000 1.000000
vn 0.000000 -0.000000 1.000000
vn 0.000000 -0.000000 1.000000
vn 0.000000 -0.000000 1.000000
s off
g Puerta:Rectangle09
usemtl Puerta:lambert3SG
f 5//1 6//2 2//3 1//4
f 6//5 7//6 3//7 2//8
f 7//9 8//10 4//11 3//12
f 8//13 5//14 1//15 4//16
f 1//17 2//18 3//19 4//20
f 5//21 8//22 7//23 6//24
g default
v -2.424026 8.739382 9.583183
v 1.694485 8.739382 9.583183
v 1.694485 0.267014 9.583183
v -2.424026 0.267014 9.583183
v -2.424023 8.739382 9.824692
v 1.694488 8.739382 9.824692
v 1.694488 0.267014 9.824692
v -2.424023 0.267014 9.824692
v -2.218101 0.575100 9.583183
v 1.488559 0.575100 9.583183
v 1.488559 8.431296 9.583183
v -2.218101 8.431296 9.583183
v -2.218101 0.575100 9.824692
v 1.488563 0.575100 9.824692
v 1.488563 8.431296 9.824692
v -2.218101 8.431296 9.824692
vn 0.000000 1.000000 0.000000
vn 0.000000 1.000000 0.000000
vn 0.000000 1.000000 0.000000
vn 0.000000 1.000000 0.000000
vn 1.000000 0.000000 0.000000
vn 1.000000 0.000000 0.000000
vn 1.000000 0.000000 0.000000
vn 1.000000 0.000000 0.000000
vn 0.000000 -1.000000 0.000000
vn 0.000000 -1.000000 0.000000
vn 0.000000 -1.000000 0.000000
vn 0.000000 -1.000000 0.000000
vn -1.000000 0.000000 -0.000000
vn -1.000000 0.000000 -0.000000
vn -1.000000 0.000000 -0.000000
vn -1.000000 0.000000 -0.000000
vn 0.000000 1.000000 0.000000
vn 0.000000 1.000000 0.000000
vn 0.000000 1.000000 0.000000
vn 0.000000 1.000000 0.000000
vn -1.000000 0.000000 0.000000
vn -1.000000 0.000000 0.000000
vn -1.000000 0.000000 0.000000
vn -1.000000 0.000000 0.000000
vn 0.000000 -1.000000 0.000000
vn 0.000000 -1.000000 0.000000
vn 0.000000 -1.000000 0.000000
vn 0.000000 -1.000000 0.000000
vn 1.000000 0.000000 0.000000
vn 1.000000 0.000000 0.000000
vn 1.000000 0.000000 0.000000
vn 1.000000 0.000000 0.000000
vn 0.000000 0.000000 -1.000000
vn 0.000000 0.000000 -1.000000
vn 0.000000 0.000000 -1.000000
vn 0.000000 0.000000 -1.000000
vn 0.000000 0.000000 -1.000000
vn 0.000000 0.000000 -1.000000
vn 0.000000 0.000000 -1.000000
vn 0.000000 0.000000 -1.000000
vn 0.000000 0.000000 -1.000000
vn 0.000000 0.000000 -1.000000
vn 0.000000 0.000000 -1.000000
vn 0.000000 0.000000 -1.000000
vn 0.000000 0.000000 -1.000000
vn 0.000000 0.000000 -1.000000
vn 0.000000 0.000000 -1.000000
vn 0.000000 0.000000 -1.000000
vn 0.000000 -0.000000 1.000000
vn 0.000000 -0.000000 1.000000
vn 0.000000 -0.000000 1.000000
vn 0.000000 -0.000000 1.000000
vn 0.000000 -0.000000 1.000000
vn 0.000000 -0.000000 1.000000
vn 0.000000 -0.000000 1.000000
vn 0.000000 -0.000000 1.000000
vn 0.000000 -0.000000 1.000000
vn 0.000000 -0.000000 1.000000
vn 0.000000 -0.000000 1.000000
vn 0.000000 -0.000000 1.000000
vn 0.000000 -0.000000 1.000000
vn 0.000000 -0.000000 1.000000
vn 0.000000 -0.000000 1.000000
vn 0.000000 -0.000000 1.000000
s off
g Puerta:Rectangle08
usemtl Puerta:lambert2SG
f 13//25 14//26 10//27 9//28
f 14//29 15//30 11//31 10//32
f 15//33 16//34 12//35 11//36
f 16//37 13//38 9//39 12//40
f 21//41 22//42 18//43 17//44
f 22//45 23//46 19//47 18//48
f 23//49 24//50 20//51 19//52
f 24//53 21//54 17//55 20//56
f 20//57 17//58 12//59 9//60
f 10//61 19//62 20//63 9//64
f 11//65 18//66 19//67 10//68
f 18//69 11//70 12//71 17//72
f 22//73 21//74 16//75 15//76
f 23//77 22//78 15//79 14//80
f 24//81 23//82 14//83 13//84
f 16//85 21//86 24//87 13//88
